<svg width="21050" height="6357" viewBox="0 0 21050 6357" fill="none" xmlns="http://www.w3.org/2000/svg">
<path d="M223.73 1787.7C250.163 1780.15 288.867 1770.71 339.844 1759.38C391.764 1748.05 453.125 1737.67 523.926 1728.23C594.727 1717.85 673.551 1709.35 760.4 1702.74C848.193 1695.19 942.122 1691.41 1042.19 1691.41C1219.66 1691.41 1375.9 1704.63 1510.89 1731.06C1646.83 1757.49 1760.58 1802.34 1852.15 1865.58C1943.72 1928.83 2012.63 2012.85 2058.89 2117.63C2106.09 2222.42 2129.69 2353.17 2129.69 2509.87C2129.69 2663.74 2104.2 2792.6 2053.22 2896.44C2002.25 2999.34 1932.39 3081.94 1843.65 3144.25C1754.92 3206.55 1651.07 3250.92 1532.13 3277.35C1413.18 3303.78 1285.74 3317 1149.8 3317C1038.41 3317 935.042 3310.39 839.697 3297.18C744.352 3283.96 659.863 3262.25 586.23 3232.04V3855.09H223.73V1787.7ZM1059.18 1994.44C997.819 1994.44 943.066 1996.33 894.922 2000.11C847.721 2003.88 804.769 2009.07 766.064 2015.68C728.304 2021.35 694.792 2028.43 665.527 2036.92C636.263 2044.47 609.831 2052.97 586.23 2062.41V2968.66C626.823 2979.99 664.583 2989.43 699.512 2996.98C735.384 3003.59 773.617 3008.78 814.209 3012.56C855.745 3016.33 902.946 3019.16 955.811 3021.05C1009.62 3022 1074.28 3022.47 1149.8 3022.47C1261.2 3022.47 1356.07 3009.72 1434.42 2984.24C1513.72 2957.8 1578.39 2921.93 1628.42 2876.62C1679.39 2831.31 1716.68 2777.5 1740.28 2715.19C1763.88 2651.94 1775.68 2583.5 1775.68 2509.87C1775.68 2409.81 1759.64 2326.73 1727.54 2260.65C1695.44 2194.57 1648.71 2141.71 1587.35 2102.06C1525.99 2062.41 1450.94 2034.56 1362.21 2018.51C1273.47 2002.47 1172.46 1994.44 1059.18 1994.44ZM4049.8 2739.27C4026.2 2718.5 3996.94 2698.2 3962.01 2678.38C3927.08 2658.55 3884.13 2641.09 3833.15 2625.98C3782.18 2609.94 3721.29 2597.19 3650.49 2587.75C3580.63 2577.37 3498.5 2572.18 3404.1 2572.18C3320.08 2572.18 3240.32 2574.06 3164.79 2577.84C3090.22 2580.67 3024.61 2590.11 2967.97 2606.16C2911.33 2621.26 2866.49 2645.81 2833.45 2679.79C2800.41 2713.78 2783.89 2760.98 2783.89 2821.39V3002.64C2866.96 3015.86 2958.53 3026.72 3058.59 3035.21C3158.66 3043.71 3270.05 3047.96 3392.77 3047.96C3490.95 3047.96 3595.26 3044.65 3705.71 3038.04C3817.11 3030.49 3931.8 3015.86 4049.8 2994.15V2739.27ZM3412.6 1702.74C3459.8 1702.74 3516.91 1705.1 3583.94 1709.82C3650.96 1714.54 3720.82 1723.04 3793.51 1735.31C3866.19 1746.64 3937.94 1762.69 4008.74 1783.46C4080.49 1803.28 4144.68 1829.71 4201.32 1862.75C4258.9 1894.85 4305.16 1933.55 4340.09 1978.87C4375.02 2024.18 4392.48 2077.51 4392.48 2138.88V3234.87C4313.18 3250.92 4223.5 3264.61 4123.44 3275.94C4037.53 3286.32 3935.11 3295.76 3816.16 3304.26C3697.22 3312.75 3564.58 3317 3418.26 3317C3272.88 3317 3118.07 3310.86 2953.81 3298.59C2790.49 3286.32 2619.63 3265.08 2441.21 3234.87V2725.11C2441.21 2670.35 2453.96 2622.68 2479.44 2582.09C2505.88 2540.55 2541.75 2505.15 2587.06 2475.89C2632.37 2446.62 2685.71 2422.55 2747.07 2403.67C2808.43 2384.79 2874.51 2369.69 2945.31 2358.36C3016.11 2347.03 3089.75 2339.48 3166.21 2335.7C3242.68 2330.98 3319.14 2328.62 3395.61 2328.62C3511.72 2328.62 3610.37 2336.17 3691.55 2351.28C3773.68 2365.44 3841.65 2381.01 3895.46 2398.01C3957.76 2418.77 4009.21 2441.9 4049.8 2467.39V2238C4049.8 2199.29 4040.36 2166.25 4021.48 2138.88C4002.6 2110.55 3977.12 2086.95 3945.02 2068.07C3912.92 2048.25 3876.11 2032.67 3834.57 2021.35C3793.03 2009.07 3749.61 1999.63 3704.3 1993.03C3658.98 1986.42 3612.73 1982.17 3565.53 1980.28C3519.27 1978.39 3475.85 1977.45 3435.25 1977.45C3392.77 1977.45 3347.46 1978.87 3299.32 1981.7C3251.17 1983.59 3203.03 1987.83 3154.88 1994.44C3107.68 2001.05 3061.9 2010.49 3017.53 2022.76C2974.1 2034.09 2935.4 2049.67 2901.42 2069.49C2867.43 2089.31 2840.06 2113.39 2819.29 2141.71C2799.46 2169.08 2789.55 2202.12 2789.55 2240.83L2438.38 2150.2C2438.38 2086.95 2453.96 2032.2 2485.11 1985.95C2516.26 1938.74 2557.32 1898.62 2608.3 1865.58C2660.22 1832.54 2719.69 1805.64 2786.72 1784.87C2853.74 1763.16 2923.13 1746.64 2994.87 1735.31C3067.56 1723.04 3139.78 1714.54 3211.52 1709.82C3283.27 1705.1 3350.29 1702.74 3412.6 1702.74ZM5165.62 2659.97C5165.62 2712.83 5172.71 2758.62 5186.87 2797.32C5201.03 2835.08 5220.38 2867.65 5244.92 2895.03C5269.47 2921.46 5297.31 2943.17 5328.47 2960.16C5360.56 2977.16 5394.08 2990.37 5429 2999.81C5463.93 3008.31 5499.33 3014.44 5535.21 3018.22C5571.08 3021.05 5605.53 3022.47 5638.57 3022.47C5758.46 3022.47 5867.5 3006.89 5965.67 2975.74C6063.85 2944.59 6151.17 2906.36 6227.64 2861.04V1702.74L6592.97 1731.06V3387.8C6592.97 3454.83 6578.81 3517.13 6550.49 3574.71C6522.17 3632.3 6481.1 3681.86 6427.29 3723.4C6373.49 3765.88 6307.41 3798.92 6229.05 3822.52C6150.7 3846.12 6061.49 3857.92 5961.43 3857.92V3611.53C5999.19 3611.53 6034.11 3607.76 6066.21 3600.2C6098.31 3592.65 6126.16 3580.85 6149.76 3564.8C6174.3 3549.7 6193.18 3530.35 6206.4 3506.75C6220.56 3484.09 6227.64 3457.66 6227.64 3427.45V3130.09C6183.27 3157.46 6137.96 3182.48 6091.7 3205.13C6046.39 3227.79 5998.71 3247.62 5948.68 3264.61C5898.65 3280.66 5846.26 3293.4 5791.5 3302.84C5736.75 3312.28 5679.17 3317 5618.75 3317C5472.43 3317 5347.35 3305.2 5243.51 3281.6C5139.66 3257.06 5054.23 3221.18 4987.21 3173.98C4921.13 3125.84 4872.51 3066.37 4841.36 2995.56C4810.21 2924.76 4794.63 2842.16 4794.63 2747.76V1731.06L5165.62 1702.74V2659.97ZM7439.75 3317H7116.89V1190.14H7439.75V3317ZM8935.06 1702.74C8983.2 1702.74 9041.26 1705.1 9109.23 1709.82C9177.2 1714.54 9247.53 1723.04 9320.21 1735.31C9393.85 1746.64 9466.54 1763.16 9538.28 1784.87C9610.03 1805.64 9674.22 1832.54 9730.86 1865.58C9788.44 1898.62 9834.7 1938.74 9869.63 1985.95C9905.5 2032.2 9923.44 2086.95 9923.44 2150.2V2628.82H8300.68V2991.32C8414.91 3007.36 8524.89 3018.69 8630.62 3025.3C8736.34 3030.96 8837.83 3033.8 8935.06 3033.8C9083.27 3033.8 9217.32 3028.13 9337.21 3016.8C9458.04 3005.48 9562.35 2992.73 9650.15 2978.57C9751.16 2962.52 9842.25 2944.12 9923.44 2923.35V3237.7C9744.08 3266.02 9570.85 3286.32 9403.76 3298.59C9237.61 3310.86 9081.38 3317 8935.06 3317C8787.79 3317 8654.22 3313.22 8534.33 3305.67C8414.44 3297.18 8311.54 3287.74 8225.63 3277.35C8125.57 3266.02 8035.42 3252.81 7955.18 3237.7V2150.2C7955.18 2086.95 7970.75 2032.2 8001.9 1985.95C8033.06 1938.74 8074.59 1898.62 8126.51 1865.58C8178.43 1832.54 8237.91 1805.64 8304.93 1784.87C8372.9 1763.16 8443.23 1746.64 8515.92 1735.31C8588.61 1723.04 8660.82 1714.54 8732.57 1709.82C8805.26 1705.1 8872.75 1702.74 8935.06 1702.74ZM8300.68 2402.25H9572.27V2238C9572.27 2199.29 9562.83 2166.25 9543.95 2138.88C9525.07 2110.55 9499.58 2086.95 9467.48 2068.07C9436.33 2049.19 9399.51 2034.09 9357.03 2022.76C9315.49 2010.49 9272.07 2001.52 9226.76 1995.86C9181.45 1989.25 9135.66 1985 9089.4 1983.11C9044.09 1981.23 9001.14 1980.28 8960.55 1980.28C8918.07 1980.28 8872.28 1981.23 8823.19 1983.11C8775.05 1985 8726.43 1989.25 8677.34 1995.86C8628.26 2002.47 8581.05 2011.91 8535.74 2024.18C8490.43 2035.51 8450.31 2051.08 8415.38 2070.91C8380.45 2089.79 8352.6 2113.39 8331.84 2141.71C8311.07 2169.08 8300.68 2202.12 8300.68 2240.83V2402.25ZM11254.5 1702.74C11366.8 1702.74 11476.3 1709.82 11583 1723.98C11689.7 1737.2 11785.5 1760.33 11870.5 1793.37C11955.4 1825.46 12025.3 1869.36 12080 1925.06C12134.8 1980.75 12167.4 2050.14 12177.7 2133.21L11849.2 2223.84C11849.2 2174.75 11832.2 2134.15 11798.2 2102.06C11765.2 2069.02 11720.8 2043.53 11665.1 2025.59C11610.4 2006.71 11547.1 1993.5 11475.4 1985.95C11403.6 1978.39 11330 1974.62 11254.5 1974.62C11181.8 1974.62 11109.6 1978.39 11037.8 1985.95C10967 1992.55 10903.3 2005.3 10846.7 2024.18C10791 2042.11 10745.7 2067.13 10710.7 2099.23C10676.8 2131.32 10659.8 2172.86 10659.8 2223.84V2396.59H12177.7V2886.53C12177.7 2942.23 12165.5 2991.79 12140.9 3035.21C12116.4 3077.69 12082.4 3114.98 12039 3147.08C11995.5 3178.23 11944.1 3205.13 11884.6 3227.79C11826.1 3249.5 11762.4 3266.97 11693.5 3280.18C11625.5 3293.4 11553.7 3302.84 11478.2 3308.5C11403.6 3314.17 11329.1 3317 11254.5 3317C11140.3 3317 11029.8 3310.39 10923.1 3297.18C10816.5 3283.02 10720.7 3259.89 10635.7 3227.79C10550.7 3194.75 10480.9 3150.85 10426.1 3096.1C10372.3 3040.4 10340.7 2970.55 10331.2 2886.53L10659.8 2795.91C10659.8 2847.83 10676.8 2889.84 10710.7 2921.93C10745.7 2954.03 10791 2979.04 10846.7 2996.98C10903.3 3014.92 10967 3027.19 11037.8 3033.8C11109.6 3039.46 11181.8 3042.29 11254.5 3042.29C11330 3042.29 11403.6 3038.99 11475.4 3032.38C11547.1 3024.83 11610.4 3012.08 11665.1 2994.15C11720.8 2975.27 11765.2 2950.25 11798.2 2919.1C11832.2 2887 11849.2 2845.94 11849.2 2795.91V2623.15H10331.2V2133.21C10331.2 2077.51 10343.5 2028.43 10368.1 1985.95C10392.6 1942.52 10426.1 1905.23 10468.6 1874.08C10512 1841.98 10563 1815.08 10621.5 1793.37C10680.1 1770.71 10743.3 1752.77 10811.3 1739.56C10880.2 1726.34 10951.9 1716.9 11026.5 1711.24C11102 1705.57 11178 1702.74 11254.5 1702.74ZM13480.5 1702.74C13592.8 1702.74 13702.3 1709.82 13809 1723.98C13915.7 1737.2 14011.5 1760.33 14096.4 1793.37C14181.4 1825.46 14251.3 1869.36 14306 1925.06C14360.8 1980.75 14393.3 2050.14 14403.7 2133.21L14075.2 2223.84C14075.2 2174.75 14058.2 2134.15 14024.2 2102.06C13991.2 2069.02 13946.8 2043.53 13891.1 2025.59C13836.4 2006.71 13773.1 1993.5 13701.4 1985.95C13629.6 1978.39 13556 1974.62 13480.5 1974.62C13407.8 1974.62 13335.6 1978.39 13263.8 1985.95C13193 1992.55 13129.3 2005.3 13072.7 2024.18C13017 2042.11 12971.6 2067.13 12936.7 2099.23C12902.7 2131.32 12885.7 2172.86 12885.7 2223.84V2396.59H14403.7V2886.53C14403.7 2942.23 14391.4 2991.79 14366.9 3035.21C14342.4 3077.69 14308.4 3114.98 14264.9 3147.08C14221.5 3178.23 14170.1 3205.13 14110.6 3227.79C14052.1 3249.5 13988.3 3266.97 13919.4 3280.18C13851.5 3293.4 13779.7 3302.84 13704.2 3308.5C13629.6 3314.17 13555 3317 13480.5 3317C13366.2 3317 13255.8 3310.39 13149.1 3297.18C13042.4 3283.02 12946.6 3259.89 12861.7 3227.79C12776.7 3194.75 12706.9 3150.85 12652.1 3096.1C12598.3 3040.4 12566.7 2970.55 12557.2 2886.53L12885.7 2795.91C12885.7 2847.83 12902.7 2889.84 12936.7 2921.93C12971.6 2954.03 13017 2979.04 13072.7 2996.98C13129.3 3014.92 13193 3027.19 13263.8 3033.8C13335.6 3039.46 13407.8 3042.29 13480.5 3042.29C13556 3042.29 13629.6 3038.99 13701.4 3032.38C13773.1 3024.83 13836.4 3012.08 13891.1 2994.15C13946.8 2975.27 13991.2 2950.25 14024.2 2919.1C14058.2 2887 14075.2 2845.94 14075.2 2795.91V2623.15H12557.2V2133.21C12557.2 2077.51 12569.5 2028.43 12594 1985.95C12618.6 1942.52 12652.1 1905.23 12694.6 1874.08C12738 1841.98 12789 1815.08 12847.5 1793.37C12906 1770.71 12969.3 1752.77 13037.3 1739.56C13106.2 1726.34 13177.9 1716.9 13252.5 1711.24C13328 1705.57 13404 1702.74 13480.5 1702.74Z" fill="black"/>
<path d="M13224.7 3086.79L13168.3 3098.75C13155.8 3098.75 13149.5 3090.77 13149.5 3074.82C13149.5 3058.87 13154.1 3048.62 13163.2 3044.06C13272.6 2981.4 13377.4 2950.07 13477.7 2950.07C13522.1 2950.07 13555.7 2967.16 13578.5 3001.34C13602.4 3034.38 13614.4 3079.38 13614.4 3136.35C13614.4 3192.17 13574.5 3290.16 13494.8 3430.29C13416.1 3570.43 13310.8 3729.37 13178.6 3907.1C13046.4 4083.69 12878.9 4277.38 12676.2 4488.15C12473.4 4697.79 12269.4 4882.93 12064.3 5043.57C11860.4 5203.08 11677.5 5323.85 11515.8 5405.88C11355.1 5487.91 11203 5528.93 11059.5 5528.93C10967.2 5528.93 10897.7 5497.59 10851 5434.93C10805.4 5371.13 10782.6 5299.35 10782.6 5219.6C10782.6 5138.71 10809.4 5035.6 10862.9 4910.27C10917.6 4783.81 10983.1 4659.05 11059.5 4536.01C11135.8 4411.82 11224.1 4281.37 11324.3 4144.65C11474.7 3936.15 11632.5 3735.06 11797.7 3541.38C11614.3 3694.05 11489 3783.48 11421.8 3809.69C11355.7 3835.89 11298.1 3848.99 11249.1 3848.99C11201.3 3848.99 11163.7 3829.06 11136.4 3789.18C11110.2 3748.16 11097 3704.3 11097 3657.59C11097 3609.74 11115.8 3562.45 11153.4 3515.74C11192.2 3467.89 11228.6 3443.96 11262.8 3443.96C11275.4 3443.96 11281.6 3448.52 11281.6 3457.64C11281.6 3466.75 11277.1 3477.57 11267.9 3490.11C11260 3501.5 11256 3509.48 11256 3514.03C11256 3526.57 11265.7 3532.83 11285 3532.83C11304.4 3532.83 11333.5 3524.29 11372.2 3507.2C11410.9 3490.11 11506.6 3430.29 11659.3 3327.75C11813.1 3225.21 11925.9 3140.34 11997.7 3073.12C12026.2 3048.05 12066.6 3035.52 12119 3035.52C12172.6 3035.52 12226.1 3048.62 12279.7 3074.82C12333.2 3099.89 12360 3125.52 12360 3151.73C12360 3157.43 12358.8 3163.12 12356.6 3168.82C12354.3 3173.38 12352 3184.77 12349.7 3203C12347.5 3220.09 12338.3 3241.17 12322.4 3266.23C12307.6 3290.16 12189.7 3456.5 11968.6 3765.25C11416.1 4535.44 11139.8 4990.6 11139.8 5130.73C11139.8 5182 11159.7 5207.64 11199.6 5207.64C11254.3 5207.64 11360.2 5158.08 11517.5 5058.96C11674.7 4958.69 11820.5 4848.18 11955 4727.41C12089.4 4605.5 12221.6 4477.33 12351.4 4342.89C12481.3 4208.45 12615.2 4062.05 12753.1 3903.68C12890.9 3745.32 13007.7 3592.08 13103.4 3443.96C13199.1 3295.85 13247 3183.63 13247 3107.29C13247 3093.62 13239.5 3086.79 13224.7 3086.79ZM14041.6 4226.68C14041.6 4301.88 14010.9 4367.96 13949.3 4424.92C13889 4481.89 13820 4510.37 13742.6 4510.37C13717.5 4510.37 13701 4504.67 13693 4493.28C13685 4480.75 13681 4464.8 13681 4445.43C13681 4426.06 13683.3 4407.26 13687.9 4389.03C13646.9 4402.71 13601.3 4423.78 13551.2 4452.27C13501 4480.75 13439.5 4522.9 13366.6 4578.73C13293.7 4634.56 13257.2 4676.14 13257.2 4703.49C13257.2 4712.6 13270.3 4717.16 13296.5 4717.16C13323.9 4717.16 13365.4 4708.04 13421.3 4689.81C13477.1 4670.45 13515.8 4660.76 13537.5 4660.76C13560.3 4660.76 13575.1 4661.9 13581.9 4664.18C13596.7 4672.15 13612.7 4689.81 13629.8 4717.16C13646.9 4743.36 13655.4 4764.44 13655.4 4780.39C13655.4 4795.2 13640.6 4815.14 13611 4840.21C13581.3 4865.27 13547.7 4884.64 13510.1 4898.31C13472.5 4910.84 13447.5 4920.53 13434.9 4927.36C13194.5 5061.8 13074.3 5154.09 13074.3 5204.22C13074.3 5293.09 13150.1 5337.52 13301.6 5337.52C13398.5 5337.52 13495.9 5306.76 13593.9 5245.23C13677 5192.83 13751.7 5139.85 13817.8 5086.3C13885 5031.61 13927.1 4998 13944.2 4985.47C13962.4 4972.94 13976.1 4966.67 13985.2 4966.67C14014.9 4966.67 14029.7 4999.71 14029.7 5065.79C14029.7 5131.87 14025.7 5175.74 14017.7 5197.38C14009.7 5217.89 13986.9 5243.53 13949.3 5274.29C13705.5 5472.53 13474.8 5571.65 13257.2 5571.65C13141 5571.65 13048.1 5555.7 12978.6 5523.8C12851 5465.69 12787.2 5376.83 12787.2 5257.2C12787.2 5099.97 12896 4980.91 13113.7 4900.02C13070.4 4880.65 13042.4 4856.16 13029.9 4826.53C13017.4 4795.77 13011.1 4747.35 13011.1 4681.27C13011.1 4614.05 13041.9 4543.41 13103.4 4469.36C13166.1 4394.16 13242.4 4332.64 13332.4 4284.79C13532.9 4176.55 13711.8 4122.43 13869 4122.43C13906.6 4122.43 13944.8 4131.55 13983.5 4149.78C14022.3 4168 14041.6 4193.64 14041.6 4226.68ZM15480.6 5000.85C15488.6 5053.26 15492.6 5094.84 15492.6 5125.61C15492.6 5155.23 15486.9 5181.43 15475.5 5204.22C15465.2 5225.87 15441.3 5257.2 15403.7 5298.21C15367.2 5338.09 15323.4 5378.54 15272.1 5419.55C15146.8 5518.67 15018.6 5568.23 14887.6 5568.23C14699.6 5568.23 14605.6 5485.06 14605.6 5318.72C14605.6 5174.03 14731.5 4885.78 14983.3 4453.97C14992.4 4438.02 14998.7 4426.63 15002.1 4419.79C14914.4 4481.32 14746.3 4649.37 14497.9 4923.95C14250.7 5197.38 14086.1 5391.07 14004 5505C13997.2 5515.25 13980.1 5526.65 13952.8 5539.18C13925.4 5551.71 13903.8 5557.98 13887.8 5557.98C13873 5557.98 13857.1 5552.85 13840 5542.6C13821.7 5533.48 13810.3 5528.93 13805.8 5528.93C13791 5528.93 13783.6 5523.8 13783.6 5513.54C13783.6 5504.43 13804.1 5452.59 13845.1 5358.03C13885 5262.32 13938 5143.83 14004 5002.56C14185.2 4612.91 14454.6 4105.91 14812.4 3481.56C14937.7 3262.81 15035.7 3107.86 15106.3 3016.72C15156.5 2951.78 15240.8 2919.31 15359.3 2919.31C15384.3 2919.31 15398.6 2926.71 15402 2941.52C15405.4 2956.33 15407.1 2972.29 15407.1 2989.38C15407.1 3006.46 15403.7 3023.55 15396.9 3040.64L15214 3326.04C14851.7 3891.15 14578.8 4359.41 14395.4 4730.83C14573.1 4514.36 14745.7 4347.45 14913.2 4230.1C15016.9 4156.04 15094.4 4119.01 15145.6 4119.01C15198 4119.01 15245.3 4127.56 15287.5 4144.65C15329.6 4160.6 15350.7 4199.91 15350.7 4262.57C15350.7 4285.35 15313.7 4369.66 15239.6 4515.5C15017.5 4953 14906.4 5196.24 14906.4 5245.23C14906.4 5293.09 14926.3 5317.01 14966.2 5317.01C15024.3 5317.01 15113.7 5260.62 15234.5 5147.82C15325.6 5062.37 15383.2 5007.69 15407.1 4983.76C15420.8 4973.51 15433.3 4968.38 15444.7 4968.38C15466.4 4968.38 15478.3 4979.2 15480.6 5000.85ZM16466.7 3628.54C16466.7 3693.48 16436.5 3758.99 16376.1 3825.07C16315.7 3890.01 16252.5 3922.48 16186.4 3922.48C16121.5 3922.48 16089 3888.3 16089 3819.94C16089 3751.58 16117.5 3686.64 16174.4 3625.12C16232.5 3562.45 16296.3 3531.12 16365.8 3531.12C16396.6 3531.12 16421.1 3539.67 16439.3 3556.76C16457.6 3573.85 16466.7 3597.77 16466.7 3628.54ZM16189.8 5120.48C16189.8 5154.66 16186.4 5179.15 16179.6 5193.96C16123.7 5307.9 16034.9 5400.18 15913 5470.82C15791.1 5540.32 15685.1 5575.07 15595.1 5575.07C15505.1 5575.07 15427.6 5544.88 15362.7 5484.49C15297.7 5424.11 15265.3 5362.58 15265.3 5299.92C15265.3 5237.26 15296.6 5146.11 15359.3 5026.48C15421.9 4906.86 15484.6 4796.34 15547.2 4694.94C15609.9 4593.54 15641.2 4538.85 15641.2 4530.88C15641.2 4521.76 15629.3 4504.67 15605.3 4479.61C15582.6 4454.54 15571.2 4436.32 15571.2 4424.92C15571.2 4412.39 15594.5 4381.06 15641.2 4330.93C15689.1 4279.66 15746.6 4229.53 15813.8 4180.54C15882.2 4130.41 15934 4105.34 15969.4 4105.34C16005.8 4105.34 16038.3 4121.29 16066.8 4153.19C16095.3 4185.09 16109.5 4214.15 16109.5 4240.35C16109.5 4266.56 15973.9 4513.22 15702.8 4980.34C15699.3 4987.18 15689.7 5002.56 15673.7 5026.48C15658.9 5049.27 15646.9 5068.64 15637.8 5084.59C15629.8 5099.4 15620.2 5117.63 15608.8 5139.28C15586 5184.85 15574.6 5223.02 15574.6 5253.78C15574.6 5292.52 15600.8 5311.88 15653.2 5311.88C15705.6 5311.88 15759.7 5294.23 15815.6 5258.91C15872.5 5222.45 15921.5 5182.57 15962.5 5139.28C16069.6 5024.21 16130.6 4966.67 16145.4 4966.67C16175 4966.67 16189.8 5017.94 16189.8 5120.48ZM17175.9 5125.61C17235.2 5088.01 17273.3 5062.37 17290.4 5048.7C17307.5 5033.89 17327.4 5016.8 17350.2 4997.43C17373 4978.06 17391.8 4968.38 17406.6 4968.38C17429.4 4968.38 17440.8 4994.58 17440.8 5046.99C17440.8 5098.26 17415.2 5154.09 17363.9 5214.47C17313.8 5273.72 17251.1 5324.42 17175.9 5366.57C17100.7 5407.59 17020.4 5443.48 16934.9 5474.24C16765.2 5536.9 16620.5 5568.23 16500.9 5568.23C16382.4 5568.23 16275.3 5529.5 16179.6 5452.02C16083.9 5373.41 16036 5271.44 16036 5146.11C16036 5019.65 16067.3 4893.75 16130 4768.43C16192.7 4641.96 16273 4531.45 16371 4436.88C16470.1 4341.18 16584.6 4263.71 16714.5 4204.46C16845.5 4145.22 16974.8 4115.6 17102.4 4115.6C17163.9 4115.6 17219.2 4133.26 17268.2 4168.57C17317.2 4203.89 17341.7 4252.31 17341.7 4313.84C17341.7 4375.36 17310.9 4449.42 17249.4 4536.01C17189 4621.46 17127.5 4664.18 17064.8 4664.18C16991.9 4664.18 16955.4 4629.43 16955.4 4559.93C16955.4 4541.7 16972.5 4509.23 17006.7 4462.52C17040.9 4415.81 17058 4384.48 17058 4368.53C17058 4351.44 17051.7 4342.89 17039.2 4342.89C16976.5 4342.89 16909.3 4364.54 16837.5 4407.83C16765.8 4451.13 16700.2 4496.7 16641 4544.55C16582.9 4592.4 16527.6 4645.95 16475.2 4705.2C16361.3 4833.94 16304.3 4967.81 16304.3 5106.81C16304.3 5162.63 16322 5211.05 16357.3 5252.07C16393.8 5291.95 16454.1 5311.88 16538.5 5311.88C16623.9 5311.88 16709.4 5302.2 16794.8 5282.83C16880.3 5262.32 16950.3 5240.68 17005 5217.89C17060.8 5193.96 17117.8 5163.2 17175.9 5125.61ZM18760.1 2939.81C18814.8 2939.81 18862.7 2956.33 18903.7 2989.38C18945.8 3021.28 18966.9 3069.13 18966.9 3132.93C18966.9 3196.73 18931.6 3296.99 18861 3433.71C18790.3 3569.29 18705.4 3708.29 18606.3 3850.7C18507.2 3991.98 18395 4142.37 18269.7 4301.88C18071.4 4554.8 17881.1 4782.1 17698.9 4983.76C17697.7 4997.43 17692.6 5023.07 17683.5 5060.66C17675.5 5097.12 17671.5 5134.15 17671.5 5171.75C17671.5 5209.35 17688.6 5243.53 17722.8 5274.29C17758.1 5303.91 17801.4 5318.72 17852.7 5318.72C17903.9 5318.72 17958.6 5300.49 18016.7 5264.03C18076 5227.57 18127.2 5187.13 18170.5 5142.7C18284.5 5025.35 18355.1 4966.67 18382.4 4966.67C18409.8 4966.67 18423.5 5008.26 18423.5 5091.43V5125.61C18423.5 5170.04 18415.5 5202.51 18399.5 5223.02C18303.8 5340.37 18196.2 5428.1 18076.5 5486.2C17956.9 5543.17 17843.5 5571.65 17736.5 5571.65C17629.4 5571.65 17547.9 5539.18 17492.1 5474.24C17436.2 5408.16 17408.3 5318.15 17408.3 5204.22C17408.3 4982.05 17467.6 4721.15 17586.1 4421.5C17705.7 4120.72 17840.1 3864.94 17989.4 3654.17C18325.5 3177.93 18582.4 2939.81 18760.1 2939.81ZM18683.2 3223.51C18683.2 3206.42 18677.5 3197.87 18666.1 3197.87C18626.3 3197.87 18521.4 3311.8 18351.7 3539.67C18181.9 3767.53 18058.9 3949.25 17982.5 4084.83C17907.4 4220.41 17836.1 4390.74 17768.9 4595.82C17903.4 4436.32 18089.1 4187.94 18326.1 3850.7C18564.2 3512.32 18683.2 3303.26 18683.2 3223.51ZM19421.5 4226.68C19421.5 4301.88 19390.8 4367.96 19329.2 4424.92C19268.8 4481.89 19199.9 4510.37 19122.4 4510.37C19097.4 4510.37 19080.9 4504.67 19072.9 4493.28C19064.9 4480.75 19060.9 4464.8 19060.9 4445.43C19060.9 4426.06 19063.2 4407.26 19067.8 4389.03C19026.7 4402.71 18981.2 4423.78 18931 4452.27C18880.9 4480.75 18819.4 4522.9 18746.5 4578.73C18673.5 4634.56 18637.1 4676.14 18637.1 4703.49C18637.1 4712.6 18650.2 4717.16 18676.4 4717.16C18703.7 4717.16 18745.3 4708.04 18801.2 4689.81C18857 4670.45 18895.7 4660.76 18917.4 4660.76C18940.1 4660.76 18955 4661.9 18961.8 4664.18C18976.6 4672.15 18992.6 4689.81 19009.6 4717.16C19026.7 4743.36 19035.3 4764.44 19035.3 4780.39C19035.3 4795.2 19020.5 4815.14 18990.8 4840.21C18961.2 4865.27 18927.6 4884.64 18890 4898.31C18852.4 4910.84 18827.4 4920.53 18814.8 4927.36C18574.4 5061.8 18454.2 5154.09 18454.2 5204.22C18454.2 5293.09 18530 5337.52 18681.5 5337.52C18778.4 5337.52 18875.8 5306.76 18973.8 5245.23C19056.9 5192.83 19131.6 5139.85 19197.6 5086.3C19264.9 5031.61 19307 4998 19324.1 4985.47C19342.3 4972.94 19356 4966.67 19365.1 4966.67C19394.7 4966.67 19409.5 4999.71 19409.5 5065.79C19409.5 5131.87 19405.6 5175.74 19397.6 5197.38C19389.6 5217.89 19366.8 5243.53 19329.2 5274.29C19085.4 5472.53 18854.7 5571.65 18637.1 5571.65C18520.9 5571.65 18428 5555.7 18358.5 5523.8C18230.9 5465.69 18167.1 5376.83 18167.1 5257.2C18167.1 5099.97 18275.9 4980.91 18493.5 4900.02C18450.2 4880.65 18422.3 4856.16 18409.8 4826.53C18397.3 4795.77 18391 4747.35 18391 4681.27C18391 4614.05 18421.8 4543.41 18483.3 4469.36C18545.9 4394.16 18622.3 4332.64 18712.3 4284.79C18912.8 4176.55 19091.7 4122.43 19248.9 4122.43C19286.5 4122.43 19324.7 4131.55 19363.4 4149.78C19402.1 4168 19421.5 4193.64 19421.5 4226.68ZM19544.6 5163.2L19542.8 5190.55C19542.8 5219.03 19553.7 5243.53 19575.3 5264.03C19597 5284.54 19616.9 5294.79 19635.1 5294.79C19771.9 5294.79 19892.6 5274.29 19997.4 5233.27C20103.4 5192.26 20156.4 5151.24 20156.4 5110.22C20156.4 5090.86 20137 5074.34 20098.3 5060.66C20060.7 5045.85 19996.3 5028.19 19905.2 5007.69C19815.1 4986.04 19749.6 4969.52 19708.6 4958.12C19667.6 4945.59 19635.1 4934.2 19611.2 4923.95C19587.3 4913.69 19562.8 4899.45 19537.7 4881.22C19484.2 4843.62 19457.4 4787.8 19457.4 4713.74C19457.4 4638.54 19484.7 4564.49 19539.4 4491.57C19595.3 4417.52 19664.8 4354.28 19747.9 4301.88C19831.1 4249.47 19920.5 4203.32 20016.2 4163.45C20205.4 4084.83 20364.3 4045.53 20493 4045.53C20619.5 4045.53 20697.6 4072.87 20727.2 4127.56C20736.3 4146.93 20740.8 4168.57 20740.8 4192.5V4204.46C20740.8 4264.85 20727.7 4312.13 20701.5 4346.31C20676.5 4380.49 20636 4411.25 20580.2 4438.59C20525.5 4465.94 20481.7 4479.61 20448.6 4479.61C20416.7 4479.61 20396.2 4477.33 20387.1 4472.77C20379.1 4468.22 20372.3 4462.52 20366.6 4455.68C20360.9 4447.71 20353.5 4442.01 20344.4 4438.59C20336.4 4435.18 20332.4 4426.63 20332.4 4412.96C20332.4 4399.29 20338.1 4385.62 20349.5 4371.94C20360.9 4357.13 20368.9 4341.75 20373.4 4325.8C20298.2 4329.22 20219.6 4346.88 20137.6 4378.78C20055.5 4409.54 19984.9 4444.29 19925.7 4483.03C19867.6 4521.76 19819.1 4558.79 19780.4 4594.11C19741.7 4629.43 19722.3 4655.63 19722.3 4672.72C19722.3 4688.68 19748.5 4701.78 19800.9 4712.03C20036.7 4758.74 20191.7 4799.19 20265.8 4833.37C20339.8 4867.55 20391.1 4906.29 20419.6 4949.58C20448 4992.87 20462.3 5032.18 20462.3 5067.5C20462.3 5140.42 20433.2 5209.35 20375.1 5274.29C20317 5339.23 20245.2 5392.21 20159.8 5433.22C19976.4 5523.23 19816.3 5568.23 19679.6 5568.23C19544 5568.23 19450 5547.15 19397.6 5505C19346.3 5463.98 19320.7 5414.99 19320.7 5358.03C19320.7 5301.06 19334.9 5248.65 19363.4 5200.8C19393 5151.81 19430.6 5127.31 19476.2 5127.31C19521.8 5127.31 19544.6 5139.28 19544.6 5163.2Z" fill="#F4B801"/>
<path d="M3738.65 4856.53C3782.86 4856.53 3829.66 4858.11 3879.04 4861.27C3928.71 4864.42 3980.39 4870.6 4034.08 4879.79V4989.17C4009.97 4982.28 3985.56 4976.68 3960.87 4972.38C3936.18 4967.78 3911.34 4964.2 3886.37 4961.61C3861.67 4959.03 3836.98 4957.16 3812.29 4956.01C3787.6 4954.86 3763.05 4954.15 3738.65 4953.86C3726.88 4953.86 3713.81 4954.15 3699.46 4954.72C3685.39 4955.01 3670.32 4955.58 3654.24 4956.44C3638.45 4957.3 3621.79 4958.6 3604.28 4960.32C3586.77 4962.04 3568.97 4964.2 3550.88 4966.78V5123.54H3927.28V5229.48H3550.88V5402.61C3578.73 5406.63 3607.73 5409.65 3637.87 5411.66C3668.02 5413.67 3701.61 5414.67 3738.65 5414.67C3788.61 5414.67 3838.28 5412.23 3887.66 5407.35C3937.04 5402.47 3985.85 5393.14 4034.08 5379.36V5488.74C3980.39 5497.93 3928.86 5504.1 3879.48 5507.26C3830.09 5510.42 3783.72 5512 3740.37 5512C3696.16 5512 3649.21 5510.42 3599.54 5507.26C3550.16 5504.1 3498.34 5497.93 3444.07 5488.74V4879.79C3498.34 4870.6 3550.16 4864.42 3599.54 4861.27C3648.93 4858.11 3695.29 4856.53 3738.65 4856.53ZM4439.77 4855.67C4478.82 4855.67 4516.57 4858.11 4553.03 4862.99C4589.78 4867.58 4622.66 4875.62 4651.66 4887.11C4680.94 4898.3 4704.92 4913.52 4723.58 4932.76C4742.53 4951.99 4753.58 4975.97 4756.74 5004.68L4644.77 5035.69C4644.77 5018.46 4638.88 5004.39 4627.11 4993.48C4615.62 4982.28 4600.26 4973.53 4581.03 4967.21C4562.08 4960.61 4540.26 4956.01 4515.57 4953.43C4491.16 4950.84 4465.9 4949.55 4439.77 4949.55C4414.22 4949.55 4389.09 4950.7 4364.4 4953C4339.71 4955.29 4317.46 4959.6 4297.65 4965.92C4278.13 4972.23 4262.34 4980.99 4250.28 4992.19C4238.22 5003.39 4232.19 5017.88 4232.19 5035.69V5138.18H4756.74V5361.27C4756.74 5380.5 4752.43 5397.73 4743.82 5412.95C4735.49 5427.88 4723.86 5440.94 4708.93 5452.14C4694.29 5463.05 4676.78 5472.38 4656.39 5480.13C4636.3 5487.6 4614.48 5493.62 4590.93 5498.22C4567.68 5502.81 4543.13 5506.11 4517.29 5508.12C4491.45 5510.13 4465.61 5511.14 4439.77 5511.14C4413.36 5511.14 4387.37 5510.13 4361.82 5508.12C4336.27 5506.11 4312.01 5502.81 4289.04 5498.22C4266.07 5493.62 4244.68 5487.6 4224.87 5480.13C4205.34 5472.38 4188.12 5463.05 4173.19 5452.14C4158.26 5440.94 4146.2 5427.88 4137.01 5412.95C4127.83 5398.02 4122.23 5380.79 4120.22 5361.27L4232.19 5330.26C4232.19 5348.06 4238.22 5362.56 4250.28 5373.76C4262.34 5384.95 4278.13 5393.71 4297.65 5400.03C4317.46 5406.34 4339.71 5410.65 4364.4 5412.95C4389.09 5415.24 4414.22 5416.39 4439.77 5416.39C4465.9 5416.39 4491.16 5415.24 4515.57 5412.95C4540.26 5410.36 4562.08 5405.91 4581.03 5399.6C4600.26 5392.99 4615.62 5384.09 4627.11 5372.9C4638.88 5361.7 4644.77 5347.49 4644.77 5330.26V5225.18H4120.22V5004.68C4120.22 4985.44 4124.38 4968.5 4132.71 4953.86C4141.32 4938.93 4152.95 4926.01 4167.59 4915.1C4182.52 4903.9 4200.18 4894.57 4220.56 4887.11C4240.95 4879.35 4262.91 4873.18 4286.45 4868.59C4310.28 4863.99 4335.12 4860.69 4360.96 4858.68C4387.08 4856.67 4413.36 4855.67 4439.77 4855.67ZM5107.3 4857.39C5151.8 4857.39 5198.6 4858.97 5247.7 4862.13C5296.79 4865.29 5348.47 4871.46 5402.73 4880.65V4990.04C5383.5 4984.58 5361.53 4979.41 5336.84 4974.53C5315.6 4970.51 5290.04 4966.64 5260.18 4962.9C5230.33 4959.17 5196.59 4956.73 5158.98 4955.58V5512.86H5056.48V4955.58C5018.87 4956.73 4985.13 4959.17 4955.27 4962.9C4925.42 4966.64 4899.86 4970.51 4878.62 4974.53C4853.92 4979.41 4831.96 4984.58 4812.72 4990.04V4880.65C4866.41 4871.46 4918.09 4865.29 4967.76 4862.13C5017.43 4858.97 5063.95 4857.39 5107.3 4857.39ZM5585.34 5367.3C5595.67 5367.3 5605.86 5368.16 5615.91 5369.88C5626.25 5371.6 5635.44 5374.19 5643.48 5377.63C5651.51 5381.08 5657.97 5385.53 5662.86 5390.98C5668.02 5396.44 5670.61 5402.9 5670.61 5410.36V5473.24C5670.61 5480.13 5668.02 5486.02 5662.86 5490.9C5657.97 5495.78 5651.51 5499.8 5643.48 5502.96C5635.44 5506.11 5626.25 5508.41 5615.91 5509.85C5605.86 5511.28 5595.67 5512 5585.34 5512C5575 5512 5564.81 5511.28 5554.76 5509.85C5544.71 5508.41 5535.67 5506.11 5527.63 5502.96C5519.59 5499.8 5513.13 5495.78 5508.25 5490.9C5503.37 5486.02 5500.93 5480.13 5500.93 5473.24V5410.36C5500.93 5402.9 5503.37 5396.44 5508.25 5390.98C5513.13 5385.53 5519.59 5381.08 5527.63 5377.63C5535.67 5374.19 5544.71 5371.6 5554.76 5369.88C5564.81 5368.16 5575 5367.3 5585.34 5367.3ZM6505.23 4856.53C6549.74 4856.53 6596.68 4858.11 6646.06 4861.27C6695.44 4864.42 6747.27 4870.6 6801.53 4879.79V5229.48H6317.46V5402.61C6336.41 5405.2 6357.37 5407.49 6380.34 5409.5C6403.31 5411.51 6428.29 5412.95 6455.28 5413.81C6463.89 5414.38 6472.36 5414.67 6480.69 5414.67C6489.01 5414.67 6497.48 5414.67 6506.1 5414.67C6514.71 5414.67 6523.32 5414.67 6531.94 5414.67C6540.55 5414.67 6549.16 5414.38 6557.78 5413.81C6585.05 5412.95 6609.89 5411.51 6632.28 5409.5C6654.96 5407.49 6675.78 5405.2 6694.73 5402.61V5320.79H6801.53V5488.74C6747.27 5497.93 6695.59 5504.1 6646.49 5507.26C6597.4 5510.42 6551.17 5512 6507.82 5512C6463.32 5512 6416.23 5510.42 6366.56 5507.26C6316.89 5504.1 6265.21 5497.93 6211.52 5488.74V5123.54H6694.73V4966.78C6682.67 4964.77 6668.89 4963.05 6653.38 4961.61C6637.88 4959.89 6621.66 4958.45 6604.72 4957.3C6588.07 4956.16 6571.13 4955.29 6553.9 4954.72C6536.96 4954.15 6521.03 4953.86 6506.1 4953.86C6479.68 4953.86 6456.71 4954.29 6437.19 4955.15C6417.95 4956.01 6401.01 4957.16 6386.37 4958.6C6371.73 4959.75 6358.95 4961.18 6348.04 4962.9C6337.13 4964.34 6326.94 4965.63 6317.46 4966.78V5032.24H6211.52V4879.79C6265.21 4870.6 6316.75 4864.42 6366.13 4861.27C6415.51 4858.11 6461.88 4856.53 6505.23 4856.53ZM7248.56 4856.53C7293.06 4856.53 7340.15 4858.11 7389.82 4861.27C7439.49 4864.42 7491.17 4870.6 7544.86 4879.79V5488.74C7491.17 5497.93 7439.63 5504.1 7390.25 5507.26C7340.87 5510.42 7294.5 5512 7251.14 5512C7206.64 5512 7159.7 5510.42 7110.32 5507.26C7060.93 5504.1 7009.11 5497.93 6954.85 5488.74V4879.79C7009.11 4870.6 7060.79 4864.42 7109.89 4861.27C7158.98 4858.11 7205.21 4856.53 7248.56 4856.53ZM7249.42 5414.67C7258.04 5414.67 7266.65 5414.67 7275.26 5414.67C7283.88 5414.67 7292.49 5414.38 7301.1 5413.81C7328.95 5412.95 7353.93 5411.51 7376.04 5409.5C7398.43 5407.49 7419.39 5405.2 7438.91 5402.61V4966.78C7426.86 4964.77 7412.93 4963.05 7397.14 4961.61C7381.64 4959.89 7365.41 4958.45 7348.47 4957.3C7331.82 4956.16 7314.88 4955.29 7297.66 4954.72C7280.43 4954.15 7264.35 4953.86 7249.42 4953.86C7223.01 4953.86 7200.18 4954.29 7180.95 4955.15C7161.71 4956.01 7144.77 4957.16 7130.13 4958.6C7115.49 4959.75 7102.71 4961.18 7091.8 4962.9C7080.89 4964.34 7070.84 4965.63 7061.65 4966.78V5402.61C7080.31 5405.2 7100.99 5407.49 7123.67 5409.5C7146.64 5411.51 7171.62 5412.95 7198.6 5413.81C7207.22 5414.38 7215.69 5414.67 7224.01 5414.67C7232.34 5414.67 7240.81 5414.67 7249.42 5414.67ZM7879.05 5512H7773.11V4968.5C7756.74 4971.95 7741.67 4975.25 7727.89 4978.41C7714.4 4981.57 7704.2 4984.29 7697.31 4986.59V4877.2C7713.68 4874.33 7731.62 4871.6 7751.15 4869.02C7767.8 4866.72 7787.03 4864.57 7808.85 4862.56C7830.96 4860.26 7854.36 4858.54 7879.05 4857.39V5512ZM8322.64 4856.53C8367.14 4856.53 8414.22 4858.11 8463.89 4861.27C8513.56 4864.42 8565.24 4870.6 8618.93 4879.79V5488.74C8565.24 5497.93 8513.71 5504.1 8464.33 5507.26C8414.94 5510.42 8368.57 5512 8325.22 5512C8280.72 5512 8233.78 5510.42 8184.39 5507.26C8135.01 5504.1 8083.19 5497.93 8028.92 5488.74V5379.36C8048.16 5384.81 8070.12 5389.98 8094.82 5394.86C8116.06 5398.88 8141.61 5402.75 8171.47 5406.49C8201.33 5410.22 8235.07 5412.66 8272.68 5413.81C8281.29 5414.38 8289.76 5414.67 8298.09 5414.67C8306.42 5414.67 8314.88 5414.67 8323.5 5414.67C8332.11 5414.67 8340.72 5414.67 8349.34 5414.67C8357.95 5414.67 8366.56 5414.38 8375.18 5413.81C8403.03 5412.95 8428.01 5411.51 8450.11 5409.5C8472.51 5407.49 8493.47 5405.2 8512.99 5402.61V5229.48H8133.14V5123.54H8512.99V4966.78C8500.93 4964.77 8487.01 4963.05 8471.22 4961.61C8455.71 4959.89 8439.49 4958.45 8422.55 4957.3C8405.9 4956.16 8388.96 4955.29 8371.73 4954.72C8354.51 4954.15 8338.43 4953.86 8323.5 4953.86C8273.25 4953.86 8229.76 4955.73 8193.01 4959.46C8156.26 4963.19 8125.68 4967.21 8101.28 4971.52C8072.85 4976.68 8048.73 4982.57 8028.92 4989.17V4879.79C8083.19 4870.6 8134.87 4864.42 8183.96 4861.27C8233.06 4858.11 8279.28 4856.53 8322.64 4856.53Z" fill="black"/>
</svg>
